<svg width="25" height="24" viewBox="0 0 25 24" fill="none" xmlns="http://www.w3.org/2000/svg">
<path d="M20.9901 20.4893C18.6502 22.8298 15.5765 24 12.5028 24C9.42915 24 6.35548 22.8298 4.0155 20.4893L4.86428 19.6403C9.07611 23.8532 15.9295 23.8532 20.1414 19.6403C24.3533 15.4274 24.3533 8.57256 20.1414 4.35967C15.9295 0.146775 9.07619 0.146775 4.86428 4.35967L4.0155 3.51068C8.69546 -1.17023 16.3102 -1.17023 20.9901 3.51068C25.67 8.19174 25.67 15.8083 20.9901 20.4893ZM5.47688 15.7775L6.32566 16.6265L10.951 12L6.32566 7.37354L5.47688 8.22252L8.6534 11.3997H0.5V12.6003H8.6534L5.47688 15.7775Z" fill="black"/>
</svg>
