<svg width="48" height="48" viewBox="0 0 48 48" fill="none" xmlns="http://www.w3.org/2000/svg">
<g clip-path="url(#clip0_2578_535)">
<path d="M35.2243 31.9757L26.6932 23.4446C27.2711 22.3561 27.6 21.116 27.6 19.8C27.6 15.4991 24.1009 12 19.8 12C15.4991 12 12 15.4991 12 19.8C12 24.1009 15.4991 27.6 19.8 27.6C21.116 27.6 22.3561 27.2711 23.4446 26.6932L31.9757 35.2243C32.4932 35.7418 33.1636 36.0044 33.8128 36.0043C34.3909 36.0043 34.9524 35.7961 35.3743 35.3743C36.2699 34.4786 36.2026 32.9541 35.2243 31.9757ZM13.2 19.8C13.2 16.1607 16.1607 13.2 19.8 13.2C23.4393 13.2 26.4 16.1607 26.4 19.8C26.4 23.4393 23.4393 26.4 19.8 26.4C16.1607 26.4 13.2 23.4393 13.2 19.8ZM34.5257 34.5257C34.2631 34.7886 33.9446 34.8225 33.7236 34.8042C33.3979 34.7777 33.0701 34.6216 32.8243 34.3757L24.4824 26.0338C25.0693 25.5919 25.5919 25.0693 26.0338 24.4824L34.3757 32.8243C34.6216 33.0701 34.7777 33.3979 34.8042 33.7236C34.8221 33.9445 34.7884 34.2631 34.5257 34.5257Z" fill="black"/>
</g>
<defs>
<clipPath id="clip0_2578_535">
<rect width="24" height="24" fill="white" transform="translate(12 12)"/>
</clipPath>
</defs>
</svg>
